<svg width="934" height="934" viewBox="0 0 934 934" fill="none" xmlns="http://www.w3.org/2000/svg">
<path d="M380.26 81.4843C368.26 91.6177 357.06 131.751 352.793 179.351L351.993 189.351L337.727 204.018C315.593 226.818 300.393 248.418 286.793 276.018C266.927 316.684 258.527 353.351 258.527 399.351C258.393 445.218 266.393 480.951 286.527 523.618L292.527 536.418L285.193 554.951C272.393 586.951 263.727 617.751 259.327 646.684C256.393 665.618 256.393 701.351 259.327 715.084L261.327 724.951L256.66 732.818C250.793 742.684 244.793 747.884 233.727 753.218C218.527 760.284 195.46 759.618 179.86 751.751C157.86 740.684 150.127 718.818 157.593 688.684C161.193 674.018 160.66 666.284 155.327 656.418C148.527 643.884 135.193 636.951 120.527 638.418C100.927 640.151 90.26 652.818 85.1934 680.151C81.86 697.618 81.1934 709.884 82.9267 724.018C89.5934 781.751 132.527 822.818 193.593 830.151C226.793 834.151 264.527 823.751 289.06 804.151C294.26 799.884 298.793 797.351 299.593 797.884C300.26 798.418 304.527 801.884 308.927 805.351C318.26 812.818 343.593 825.484 361.193 831.351C389.46 840.684 431.327 849.084 472.927 853.484C499.86 856.284 579.993 857.484 608.527 855.484C636.527 853.484 669.86 849.351 690.793 845.351L707.327 842.151L717.46 847.084C726.927 851.751 728.127 852.018 740.793 852.018C752.793 852.018 755.06 851.618 761.593 848.418C775.593 841.484 783.46 832.684 788.793 818.284C791.193 811.484 792.927 809.351 800.793 803.084C823.06 785.218 841.193 753.751 848.527 720.018C852.793 700.818 853.327 662.551 849.727 638.018C843.993 597.884 830.26 554.284 809.993 511.084L803.993 498.284L807.327 487.751C817.327 457.618 820.793 434.284 820.793 400.018C820.793 370.418 818.927 354.018 812.393 329.218C797.993 274.418 771.06 230.551 726.793 189.351L716.66 180.018L715.06 165.351C711.727 134.951 703.46 102.684 695.727 89.351C684.127 69.6177 669.593 74.6843 631.06 111.884L614.26 128.151L604.927 125.751C585.06 120.818 566.927 118.818 540.26 118.818C511.593 118.684 497.193 120.284 473.06 126.151L457.327 130.018L440.393 113.751C406.66 80.951 390.927 72.551 380.26 81.4843ZM399.06 94.8177C408.66 100.818 442.927 131.484 442.927 134.018C442.927 134.684 438.26 137.084 432.66 139.351C411.06 148.284 387.193 161.884 369.993 174.951L365.193 178.684L366.127 170.684C370.127 136.151 378.127 105.618 386.393 92.951C388.66 89.4843 391.193 89.751 399.06 94.8177ZM684.793 95.6177C691.193 106.684 699.46 138.018 702.393 162.551L703.327 170.418L699.46 167.751C684.793 157.484 660.927 144.951 641.193 137.218L628.127 132.151L636.527 123.618C651.86 108.151 675.06 90.0177 679.86 90.0177C680.66 90.0177 682.927 92.551 684.793 95.6177ZM557.593 131.351C596.927 134.418 629.327 143.484 663.327 160.951C731.86 196.151 783.86 262.551 801.727 337.484C811.06 377.084 810.793 425.218 800.927 464.684C792.66 497.484 778.66 528.151 759.327 555.218C740.927 580.951 718.66 603.084 692.393 621.618C691.993 621.884 695.327 628.951 699.727 637.218L707.593 652.418L703.327 661.084C697.593 672.951 692.527 678.151 681.993 683.751C662.26 694.151 656.393 701.218 656.26 714.684C656.26 720.684 656.127 721.084 654.393 718.684C653.46 717.218 645.86 702.684 637.727 686.284C629.46 670.018 622.26 656.684 621.86 656.684C621.327 656.684 616.66 657.884 611.593 659.351C581.727 668.018 536.393 671.084 504.927 666.684C478.527 663.084 454.66 656.418 433.06 646.818C425.86 643.484 425.46 643.084 427.327 640.951C432.927 634.818 441.593 610.684 441.593 601.218C441.593 596.151 438.26 586.284 435.46 583.218C434.393 582.018 439.193 583.884 446.26 587.484C512.127 620.418 591.593 616.018 653.193 575.884C699.327 546.018 730.66 501.618 743.593 448.151C755.327 400.151 748.793 348.284 725.46 303.484C695.727 246.151 642.66 206.551 578.26 193.751C557.193 189.484 521.86 189.484 500.66 193.751C440.527 205.751 388.793 242.551 358.393 294.818C337.06 331.618 326.927 376.951 330.927 418.018C336.927 479.751 367.06 532.951 416.793 569.618C423.46 574.551 423.993 575.218 420.527 574.551C415.993 573.618 402.66 579.884 378.927 593.884C371.46 598.418 364.527 602.018 363.593 602.018C362.66 602.018 355.86 596.018 348.527 588.684C310.927 551.218 284.793 501.618 274.793 448.018C271.193 429.351 269.86 389.618 272.127 369.884C282.393 279.351 338.127 199.884 419.993 158.818C449.86 143.884 485.46 134.151 519.593 131.484C538.66 129.884 539.193 129.884 557.593 131.351ZM568.26 204.818C613.86 210.951 659.46 236.151 689.593 272.018C694.927 278.284 699.06 283.618 698.793 284.018C698.527 284.284 694.127 285.484 689.06 286.551C669.327 291.218 649.593 305.884 640.527 323.084C635.327 332.818 630.927 349.218 630.927 358.551C630.927 368.684 634.393 382.951 639.193 392.684C644.927 404.418 660.527 420.018 672.26 425.751C689.327 434.151 711.46 436.018 727.327 430.551C730.793 429.351 733.993 428.684 734.393 429.084C735.46 430.151 729.993 452.818 725.593 465.351C708.127 514.818 672.66 554.151 624.927 577.351C562.527 607.618 488.527 602.418 430.527 563.884C397.727 542.018 370.527 508.284 356.127 471.484C351.593 459.751 343.593 430.284 344.66 429.084C344.927 428.951 347.993 429.751 351.593 430.951C361.46 434.151 384.127 434.018 393.593 430.818C417.593 422.684 433.993 407.218 442.393 385.218C446.66 374.018 447.993 356.684 445.727 344.418C440.527 317.618 417.593 293.484 391.593 287.218C379.06 284.284 379.327 284.818 385.727 276.684C401.593 256.418 425.593 236.951 450.66 224.284C487.46 205.484 525.593 199.218 568.26 204.818ZM393.327 300.818C403.593 304.284 415.593 312.818 421.993 321.751C445.593 353.884 435.06 397.351 399.193 414.951C389.727 419.751 388.26 420.018 375.06 420.418C363.193 420.684 359.593 420.284 352.26 417.751L343.593 414.684L343.193 398.818C342.527 369.884 350.26 337.351 364.393 309.884L371.327 296.418L378.127 297.218C381.86 297.751 388.66 299.351 393.327 300.818ZM712.393 304.951C728.927 333.884 738.127 373.484 736.527 408.151C736.26 413.351 735.993 413.884 729.993 416.284C720.793 420.151 717.06 420.818 705.06 420.818C677.727 420.684 654.927 403.618 646.26 376.951C644.527 371.484 644.127 366.551 644.527 356.284C644.927 344.418 645.593 341.484 649.193 333.618C657.327 316.284 674.26 302.684 692.66 298.684C706.927 295.618 707.06 295.618 712.393 304.951ZM805.993 533.218C820.26 565.618 831.86 604.284 837.06 636.018C840.127 654.418 840.393 695.218 837.727 710.018C833.86 731.751 825.46 753.084 814.527 769.351C809.06 777.484 793.993 794.018 792.127 794.018C791.593 794.018 790.66 792.018 790.26 789.618C789.727 787.351 781.86 770.684 772.793 752.818L756.393 720.284L766.793 708.151C779.86 692.818 779.593 693.218 776.927 689.218C773.46 684.018 769.993 685.618 759.727 697.484C754.527 703.351 747.327 710.284 743.727 712.684C719.993 728.551 679.46 732.151 670.393 719.084C665.06 711.618 669.06 705.484 684.127 697.351C700.127 688.951 704.527 684.818 712.393 671.351C727.06 646.151 733.06 630.818 729.727 626.818C725.46 621.751 719.06 625.618 717.06 634.284C716.527 636.418 715.727 638.018 715.193 638.018C714.26 638.018 708.26 627.084 708.26 625.484C708.26 625.351 713.193 621.218 719.327 616.418C747.727 593.751 775.593 558.684 792.393 524.284C797.727 513.618 797.327 513.351 805.993 533.218ZM305.993 556.951C312.927 567.884 326.393 584.151 340.26 598.418C350.26 608.951 352.393 611.751 350.927 612.818C349.86 613.484 345.727 616.018 341.86 618.418C337.993 620.684 334.527 623.751 334.127 624.951C333.06 628.551 335.993 632.684 339.727 632.684C343.193 632.684 354.26 626.151 363.593 618.684C369.86 613.618 394.527 598.951 408.393 591.884C417.727 587.218 418.127 587.084 422.393 589.218C427.46 591.618 428.927 596.684 427.993 607.484C426.66 621.484 409.593 646.684 392.66 660.018C385.46 665.618 382.927 670.284 385.193 673.884C387.727 677.884 391.727 676.951 399.727 670.684C404.127 667.218 409.727 662.018 412.26 659.084L416.927 653.884L423.593 656.684C479.86 681.351 539.727 687.751 595.86 675.218C605.593 673.084 614.127 671.351 614.793 671.351C615.727 671.351 693.727 821.484 697.327 830.151C698.127 832.151 663.46 837.884 628.26 841.618C597.06 844.818 511.46 844.818 480.26 841.618C396.127 832.818 337.993 815.618 312.66 792.018C306.927 786.684 303.46 781.484 295.86 766.684C288.127 751.751 285.593 747.884 283.193 747.618C279.46 747.084 276.26 749.484 276.26 752.818C276.26 754.284 279.593 762.018 283.593 770.018C287.593 778.018 290.927 785.218 290.927 785.884C290.927 788.018 275.993 798.951 265.327 804.551C249.46 813.218 234.66 816.818 213.46 817.618C199.593 818.151 192.793 817.884 184.127 816.018C138.66 806.818 105.727 775.618 96.9267 733.351C92.7934 713.084 95.86 677.218 102.927 663.351C113.193 643.218 141.993 647.484 146.927 669.618C147.593 672.418 147.06 678.018 145.46 684.951C140.127 708.818 141.193 724.951 149.06 739.351C164.927 768.418 209.193 779.751 241.993 763.084C252.66 757.751 264.26 746.551 269.593 736.418L273.993 728.151L271.86 714.551C266.527 681.884 270.66 638.018 282.927 599.084C286.527 587.618 300.527 550.018 301.193 550.018C301.327 550.018 303.593 553.218 305.993 556.951ZM763.86 762.284L778.26 790.684V802.018C778.26 814.818 775.86 821.084 767.727 829.084C760.127 836.818 751.727 840.018 740.26 839.884C728.793 839.884 719.86 836.151 712.793 828.418C707.327 822.551 706.927 821.751 680.927 770.951L658.66 727.084L664.393 731.218C672.127 736.951 681.327 739.351 694.793 739.351C711.46 739.351 730.127 734.951 740.793 728.418C744.793 726.151 744.793 726.151 747.193 730.018C748.393 732.151 755.993 746.684 763.86 762.284Z" fill="black"/>
<path d="M455.993 239.484C454.66 240.151 453.593 242.018 453.593 243.484C453.593 249.218 462.127 280.151 464.26 282.551C467.06 285.484 472.793 284.684 474.127 281.218C474.527 280.151 472.793 270.684 470.127 260.284C464.793 238.818 462.527 235.618 455.993 239.484Z" fill="black"/>
<path d="M617.727 242.551C616.927 243.484 614.66 252.818 612.793 263.351C609.593 281.218 609.593 282.418 611.727 284.818C614.793 288.151 618.393 288.018 620.793 284.284C621.727 282.684 623.993 273.084 625.593 263.084C628.127 248.151 628.393 244.418 626.927 242.684C624.793 240.151 619.727 240.018 617.727 242.551Z" fill="black"/>
<path d="M431.727 246.818C430.527 247.884 429.593 249.084 429.593 249.484C429.593 249.751 431.727 258.818 434.393 269.484C437.993 283.884 439.86 289.084 441.86 290.151C445.327 292.018 449.46 290.418 450.393 286.818C451.193 283.218 443.593 252.151 440.793 247.618C438.527 244.151 434.66 243.751 431.727 246.818Z" fill="black"/>
<path d="M641.727 246.551C640.927 247.484 638.66 257.084 636.793 267.884C633.06 288.951 633.327 291.351 639.727 291.351C644.527 291.351 646.393 286.951 649.593 267.084C652.127 252.151 652.393 248.418 650.927 246.684C648.793 244.151 643.727 244.018 641.727 246.551Z" fill="black"/>
<path d="M568.527 388.684C565.327 390.818 559.327 393.218 555.193 394.151C545.06 396.151 527.993 394.951 518.127 391.351C506.127 386.951 501.327 386.551 498.393 389.884C495.46 393.084 495.06 399.618 497.46 402.551C499.593 405.084 511.993 409.751 522.26 411.884L530.26 413.618L530.66 426.284L531.06 439.084L524.66 444.551C515.993 451.884 505.593 457.218 493.593 460.551C479.327 464.551 475.327 470.418 482.26 477.351C485.993 481.218 488.393 481.351 499.46 478.551C510.127 475.751 524.26 468.684 533.993 461.218L541.727 455.351L549.327 460.418C563.593 470.284 587.593 480.684 595.593 480.684C599.46 480.684 604.26 475.351 604.26 471.218C604.26 467.751 599.327 462.018 596.527 462.018C591.993 462.018 572.127 452.951 561.593 445.884L549.593 438.018V426.151V414.418L557.46 412.818C572.527 409.884 586.927 400.551 586.927 393.751C586.927 390.284 581.06 384.684 577.327 384.684C575.593 384.684 571.727 386.551 568.527 388.684Z" fill="black"/>
<path d="M395.06 355.351C381.06 361.351 375.193 376.151 381.593 389.351C388.793 404.418 408.393 407.484 420.393 395.484C431.327 384.551 429.993 368.551 417.193 358.818C411.86 354.818 400.66 353.084 395.06 355.351Z" fill="black"/>
<path d="M671.593 356.551C665.327 359.351 659.327 365.884 658.127 371.084C657.727 373.084 657.06 375.484 656.793 376.418C656.527 377.351 656.927 380.951 657.86 384.284C660.793 396.284 673.593 404.818 685.46 402.684C701.06 399.884 710.26 381.751 703.06 367.618C699.993 361.484 696.927 358.684 690.527 356.018C684.127 353.351 678.127 353.484 671.593 356.551Z" fill="black"/>
</svg>
