<svg width="934" height="934" viewBox="0 0 934 934" fill="none" xmlns="http://www.w3.org/2000/svg">
<rect width="933.333" height="933.333" fill="#FFE5B4"/>
<path d="M345.26 81.4843C333.26 91.6177 322.06 131.751 317.793 179.351L316.993 189.351L302.727 204.018C280.593 226.818 265.393 248.418 251.793 276.018C231.927 316.684 223.527 353.351 223.527 399.351C223.393 445.218 231.393 480.951 251.527 523.618L257.527 536.418L250.193 554.951C237.393 586.951 228.727 617.751 224.327 646.684C221.393 665.618 221.393 701.351 224.327 715.084L226.327 724.951L221.66 732.818C215.793 742.684 209.793 747.884 198.727 753.218C183.527 760.284 160.46 759.618 144.86 751.751C122.86 740.684 115.127 718.818 122.593 688.684C126.193 674.018 125.66 666.284 120.327 656.418C113.527 643.884 100.193 636.951 85.5267 638.418C65.9267 640.151 55.26 652.818 50.1934 680.151C46.86 697.618 46.1934 709.884 47.9267 724.018C54.5934 781.751 97.5267 822.818 158.593 830.151C191.793 834.151 229.527 823.751 254.06 804.151C259.26 799.884 263.793 797.351 264.593 797.884C265.26 798.418 269.527 801.884 273.927 805.351C283.26 812.818 308.593 825.484 326.193 831.351C354.46 840.684 396.327 849.084 437.927 853.484C464.86 856.284 544.993 857.484 573.527 855.484C601.527 853.484 634.86 849.351 655.793 845.351L672.327 842.151L682.46 847.084C691.927 851.751 693.127 852.018 705.793 852.018C717.793 852.018 720.06 851.618 726.593 848.418C740.593 841.484 748.46 832.684 753.793 818.284C756.193 811.484 757.927 809.351 765.793 803.084C788.06 785.218 806.193 753.751 813.527 720.018C817.793 700.818 818.327 662.551 814.727 638.018C808.993 597.884 795.26 554.284 774.993 511.084L768.993 498.284L772.327 487.751C782.327 457.618 785.793 434.284 785.793 400.018C785.793 370.418 783.927 354.018 777.393 329.218C762.993 274.418 736.06 230.551 691.793 189.351L681.66 180.018L680.06 165.351C676.727 134.951 668.46 102.684 660.727 89.351C649.127 69.6177 634.593 74.6843 596.06 111.884L579.26 128.151L569.927 125.751C550.06 120.818 531.927 118.818 505.26 118.818C476.593 118.684 462.193 120.284 438.06 126.151L422.327 130.018L405.393 113.751C371.66 80.951 355.927 72.551 345.26 81.4843ZM364.06 94.8177C373.66 100.818 407.927 131.484 407.927 134.018C407.927 134.684 403.26 137.084 397.66 139.351C376.06 148.284 352.193 161.884 334.993 174.951L330.193 178.684L331.127 170.684C335.127 136.151 343.127 105.618 351.393 92.951C353.66 89.4843 356.193 89.751 364.06 94.8177ZM649.793 95.6177C656.193 106.684 664.46 138.018 667.393 162.551L668.327 170.418L664.46 167.751C649.793 157.484 625.927 144.951 606.193 137.218L593.127 132.151L601.527 123.618C616.86 108.151 640.06 90.0177 644.86 90.0177C645.66 90.0177 647.927 92.551 649.793 95.6177ZM522.593 131.351C561.927 134.418 594.327 143.484 628.327 160.951C696.86 196.151 748.86 262.551 766.727 337.484C776.06 377.084 775.793 425.218 765.927 464.684C757.66 497.484 743.66 528.151 724.327 555.218C705.927 580.951 683.66 603.084 657.393 621.618C656.993 621.884 660.327 628.951 664.727 637.218L672.593 652.418L668.327 661.084C662.593 672.951 657.527 678.151 646.993 683.751C627.26 694.151 621.393 701.218 621.26 714.684C621.26 720.684 621.127 721.084 619.393 718.684C618.46 717.218 610.86 702.684 602.727 686.284C594.46 670.018 587.26 656.684 586.86 656.684C586.327 656.684 581.66 657.884 576.593 659.351C546.727 668.018 501.393 671.084 469.927 666.684C443.527 663.084 419.66 656.418 398.06 646.818C390.86 643.484 390.46 643.084 392.327 640.951C397.927 634.818 406.593 610.684 406.593 601.218C406.593 596.151 403.26 586.284 400.46 583.218C399.393 582.018 404.193 583.884 411.26 587.484C477.127 620.418 556.593 616.018 618.193 575.884C664.327 546.018 695.66 501.618 708.593 448.151C720.327 400.151 713.793 348.284 690.46 303.484C660.727 246.151 607.66 206.551 543.26 193.751C522.193 189.484 486.86 189.484 465.66 193.751C405.527 205.751 353.793 242.551 323.393 294.818C302.06 331.618 291.927 376.951 295.927 418.018C301.927 479.751 332.06 532.951 381.793 569.618C388.46 574.551 388.993 575.218 385.527 574.551C380.993 573.618 367.66 579.884 343.927 593.884C336.46 598.418 329.527 602.018 328.593 602.018C327.66 602.018 320.86 596.018 313.527 588.684C275.927 551.218 249.793 501.618 239.793 448.018C236.193 429.351 234.86 389.618 237.127 369.884C247.393 279.351 303.127 199.884 384.993 158.818C414.86 143.884 450.46 134.151 484.593 131.484C503.66 129.884 504.193 129.884 522.593 131.351ZM533.26 204.818C578.86 210.951 624.46 236.151 654.593 272.018C659.927 278.284 664.06 283.618 663.793 284.018C663.527 284.284 659.127 285.484 654.06 286.551C634.327 291.218 614.593 305.884 605.527 323.084C600.327 332.818 595.927 349.218 595.927 358.551C595.927 368.684 599.393 382.951 604.193 392.684C609.927 404.418 625.527 420.018 637.26 425.751C654.327 434.151 676.46 436.018 692.327 430.551C695.793 429.351 698.993 428.684 699.393 429.084C700.46 430.151 694.993 452.818 690.593 465.351C673.127 514.818 637.66 554.151 589.927 577.351C527.527 607.618 453.527 602.418 395.527 563.884C362.727 542.018 335.527 508.284 321.127 471.484C316.593 459.751 308.593 430.284 309.66 429.084C309.927 428.951 312.993 429.751 316.593 430.951C326.46 434.151 349.127 434.018 358.593 430.818C382.593 422.684 398.993 407.218 407.393 385.218C411.66 374.018 412.993 356.684 410.727 344.418C405.527 317.618 382.593 293.484 356.593 287.218C344.06 284.284 344.327 284.818 350.727 276.684C366.593 256.418 390.593 236.951 415.66 224.284C452.46 205.484 490.593 199.218 533.26 204.818ZM358.327 300.818C368.593 304.284 380.593 312.818 386.993 321.751C410.593 353.884 400.06 397.351 364.193 414.951C354.727 419.751 353.26 420.018 340.06 420.418C328.193 420.684 324.593 420.284 317.26 417.751L308.593 414.684L308.193 398.818C307.527 369.884 315.26 337.351 329.393 309.884L336.327 296.418L343.127 297.218C346.86 297.751 353.66 299.351 358.327 300.818ZM677.393 304.951C693.927 333.884 703.127 373.484 701.527 408.151C701.26 413.351 700.993 413.884 694.993 416.284C685.793 420.151 682.06 420.818 670.06 420.818C642.727 420.684 619.927 403.618 611.26 376.951C609.527 371.484 609.127 366.551 609.527 356.284C609.927 344.418 610.593 341.484 614.193 333.618C622.327 316.284 639.26 302.684 657.66 298.684C671.927 295.618 672.06 295.618 677.393 304.951ZM770.993 533.218C785.26 565.618 796.86 604.284 802.06 636.018C805.127 654.418 805.393 695.218 802.727 710.018C798.86 731.751 790.46 753.084 779.527 769.351C774.06 777.484 758.993 794.018 757.127 794.018C756.593 794.018 755.66 792.018 755.26 789.618C754.727 787.351 746.86 770.684 737.793 752.818L721.393 720.284L731.793 708.151C744.86 692.818 744.593 693.218 741.927 689.218C738.46 684.018 734.993 685.618 724.727 697.484C719.527 703.351 712.327 710.284 708.727 712.684C684.993 728.551 644.46 732.151 635.393 719.084C630.06 711.618 634.06 705.484 649.127 697.351C665.127 688.951 669.527 684.818 677.393 671.351C692.06 646.151 698.06 630.818 694.727 626.818C690.46 621.751 684.06 625.618 682.06 634.284C681.527 636.418 680.727 638.018 680.193 638.018C679.26 638.018 673.26 627.084 673.26 625.484C673.26 625.351 678.193 621.218 684.327 616.418C712.727 593.751 740.593 558.684 757.393 524.284C762.727 513.618 762.327 513.351 770.993 533.218ZM270.993 556.951C277.927 567.884 291.393 584.151 305.26 598.418C315.26 608.951 317.393 611.751 315.927 612.818C314.86 613.484 310.727 616.018 306.86 618.418C302.993 620.684 299.527 623.751 299.127 624.951C298.06 628.551 300.993 632.684 304.727 632.684C308.193 632.684 319.26 626.151 328.593 618.684C334.86 613.618 359.527 598.951 373.393 591.884C382.727 587.218 383.127 587.084 387.393 589.218C392.46 591.618 393.927 596.684 392.993 607.484C391.66 621.484 374.593 646.684 357.66 660.018C350.46 665.618 347.927 670.284 350.193 673.884C352.727 677.884 356.727 676.951 364.727 670.684C369.127 667.218 374.727 662.018 377.26 659.084L381.927 653.884L388.593 656.684C444.86 681.351 504.727 687.751 560.86 675.218C570.593 673.084 579.127 671.351 579.793 671.351C580.727 671.351 658.727 821.484 662.327 830.151C663.127 832.151 628.46 837.884 593.26 841.618C562.06 844.818 476.46 844.818 445.26 841.618C361.127 832.818 302.993 815.618 277.66 792.018C271.927 786.684 268.46 781.484 260.86 766.684C253.127 751.751 250.593 747.884 248.193 747.618C244.46 747.084 241.26 749.484 241.26 752.818C241.26 754.284 244.593 762.018 248.593 770.018C252.593 778.018 255.927 785.218 255.927 785.884C255.927 788.018 240.993 798.951 230.327 804.551C214.46 813.218 199.66 816.818 178.46 817.618C164.593 818.151 157.793 817.884 149.127 816.018C103.66 806.818 70.7267 775.618 61.9267 733.351C57.7934 713.084 60.86 677.218 67.9267 663.351C78.1934 643.218 106.993 647.484 111.927 669.618C112.593 672.418 112.06 678.018 110.46 684.951C105.127 708.818 106.193 724.951 114.06 739.351C129.927 768.418 174.193 779.751 206.993 763.084C217.66 757.751 229.26 746.551 234.593 736.418L238.993 728.151L236.86 714.551C231.527 681.884 235.66 638.018 247.927 599.084C251.527 587.618 265.527 550.018 266.193 550.018C266.327 550.018 268.593 553.218 270.993 556.951ZM728.86 762.284L743.26 790.684V802.018C743.26 814.818 740.86 821.084 732.727 829.084C725.127 836.818 716.727 840.018 705.26 839.884C693.793 839.884 684.86 836.151 677.793 828.418C672.327 822.551 671.927 821.751 645.927 770.951L623.66 727.084L629.393 731.218C637.127 736.951 646.327 739.351 659.793 739.351C676.46 739.351 695.127 734.951 705.793 728.418C709.793 726.151 709.793 726.151 712.193 730.018C713.393 732.151 720.993 746.684 728.86 762.284Z" fill="#8295B8"/>
<path d="M420.993 239.484C419.66 240.151 418.593 242.018 418.593 243.484C418.593 249.218 427.127 280.151 429.26 282.551C432.06 285.484 437.793 284.684 439.127 281.218C439.527 280.151 437.793 270.684 435.127 260.284C429.793 238.818 427.527 235.618 420.993 239.484Z" fill="#8295B8"/>
<path d="M582.727 242.551C581.927 243.484 579.66 252.818 577.793 263.351C574.593 281.218 574.593 282.418 576.727 284.818C579.793 288.151 583.393 288.018 585.793 284.284C586.727 282.684 588.993 273.084 590.593 263.084C593.127 248.151 593.393 244.418 591.927 242.684C589.793 240.151 584.727 240.018 582.727 242.551Z" fill="#8295B8"/>
<path d="M396.727 246.818C395.527 247.884 394.593 249.084 394.593 249.484C394.593 249.751 396.727 258.818 399.393 269.484C402.993 283.884 404.86 289.084 406.86 290.151C410.327 292.018 414.46 290.418 415.393 286.818C416.193 283.218 408.593 252.151 405.793 247.618C403.527 244.151 399.66 243.751 396.727 246.818Z" fill="#8295B8"/>
<path d="M606.727 246.551C605.927 247.484 603.66 257.084 601.793 267.884C598.06 288.951 598.327 291.351 604.727 291.351C609.527 291.351 611.393 286.951 614.593 267.084C617.127 252.151 617.393 248.418 615.927 246.684C613.793 244.151 608.727 244.018 606.727 246.551Z" fill="#8295B8"/>
<path d="M533.527 388.684C530.327 390.818 524.327 393.218 520.193 394.151C510.06 396.151 492.993 394.951 483.127 391.351C471.127 386.951 466.327 386.551 463.393 389.884C460.46 393.084 460.06 399.618 462.46 402.551C464.593 405.084 476.993 409.751 487.26 411.884L495.26 413.618L495.66 426.284L496.06 439.084L489.66 444.551C480.993 451.884 470.593 457.218 458.593 460.551C444.327 464.551 440.327 470.418 447.26 477.351C450.993 481.218 453.393 481.351 464.46 478.551C475.127 475.751 489.26 468.684 498.993 461.218L506.727 455.351L514.327 460.418C528.593 470.284 552.593 480.684 560.593 480.684C564.46 480.684 569.26 475.351 569.26 471.218C569.26 467.751 564.327 462.018 561.527 462.018C556.993 462.018 537.127 452.951 526.593 445.884L514.593 438.018V426.151V414.418L522.46 412.818C537.527 409.884 551.927 400.551 551.927 393.751C551.927 390.284 546.06 384.684 542.327 384.684C540.593 384.684 536.727 386.551 533.527 388.684Z" fill="#8295B8"/>
<path d="M372.05 337.007C358.05 343.007 352.183 357.807 358.583 371.007C365.783 386.074 385.383 389.14 397.383 377.14C408.316 366.207 406.983 350.207 394.183 340.474C388.85 336.474 377.65 334.74 372.05 337.007Z" fill="#8295B8"/>
<path d="M622.881 338.424C616.614 341.224 610.614 347.757 609.414 352.957C609.014 354.957 608.348 357.357 608.081 358.291C607.814 359.224 608.214 362.824 609.148 366.157C612.081 378.157 624.881 386.691 636.748 384.557C652.348 381.757 661.548 363.624 654.348 349.491C651.281 343.357 648.214 340.557 641.814 337.891C635.414 335.224 629.414 335.357 622.881 338.424Z" fill="#8295B8"/>
</svg>
